<svg width="50" height="50" viewBox="0 0 131 137" fill="none" xmlns="http://www.w3.org/2000/svg">
<g clip-path="url(#clip0_213_265)">
<g opacity="0.72">
<mask id="mask0_213_265" style="mask-type:luminance" maskUnits="userSpaceOnUse" x="-1" y="-1" width="133" height="138">
<path d="M131.51 -0.0498047H-0.72998V136.27H131.51V-0.0498047Z" fill="white"/>
</mask>
<g mask="url(#mask0_213_265)">
<mask id="mask1_213_265" style="mask-type:luminance" maskUnits="userSpaceOnUse" x="-1" y="-1" width="133" height="138">
<path d="M131.31 -0.219727H-0.689941V136.28H131.31V-0.219727Z" fill="white"/>
</mask>
<g mask="url(#mask1_213_265)">
<path d="M119.19 118.08C113.13 119.82 101.99 123.02 96.07 124.14C97.2611 122.495 98.3659 120.79 99.38 119.03C102.38 113.96 104.69 110.55 108.6 110.55C110.738 110.692 112.804 111.381 114.6 112.55C114.78 112.65 115.09 112.81 115.54 113.02C116.75 113.6 119.16 114.76 122.96 117.02L119.19 118.08ZM91.81 82.0203C86.52 81.6203 80.32 78.1003 75.5 66.4703C76.0084 66.5204 76.5191 66.5438 77.03 66.5403C78.074 66.5341 79.1164 66.4573 80.15 66.3103C88.46 65.1503 100.53 59.4903 106.03 51.2103C106.527 52.6556 106.941 54.128 107.27 55.6203C107.072 55.8198 106.898 56.0412 106.75 56.2803C106.55 56.6103 106.18 57.2803 106.03 57.4203C103.83 59.4294 101.491 61.2807 99.03 62.9603C98.8153 63.0761 98.6224 63.2284 98.46 63.4103C98.2939 63.5844 98.1617 63.7879 98.07 64.0103C97.9717 64.2321 97.9108 64.4686 97.89 64.7103C97.8692 64.952 97.8895 65.1954 97.95 65.4303C98.0094 65.6649 98.1074 65.8879 98.24 66.0903C98.3739 66.2921 98.5393 66.4711 98.73 66.6203C98.9238 66.7696 99.1398 66.8877 99.37 66.9703C99.6 67.0417 99.8392 67.0787 100.08 67.0803C100.448 67.0833 100.809 66.9902 101.13 66.8103C103.584 65.1792 105.922 63.3817 108.13 61.4303C108.716 66.787 107.441 72.1821 104.52 76.7103C103.797 77.6833 102.946 78.5545 101.99 79.3003C101.031 80.0422 99.9789 80.6542 98.86 81.1203C97.7416 81.5895 96.5638 81.9025 95.36 82.0503C94.1804 82.1941 92.987 82.184 91.81 82.0203ZM62.62 59.0203C55.7 63.4903 43.62 62.2703 38.83 59.1703C33.83 55.8903 31.03 52.8803 30.53 50.1703C33.4981 43.7842 36.9133 37.6156 40.75 31.7103C45.37 31.7103 58.27 37.3703 62.75 39.2903C63.69 39.7003 64.39 40.0103 64.93 40.2303V40.5303C65.3181 46.779 64.5416 53.0454 62.64 59.0103L62.62 59.0203ZM43.14 86.8603C41.972 87.1709 40.7686 87.3288 39.56 87.3303C38.3464 87.3241 37.1391 87.156 35.97 86.8303C34.8041 86.5095 33.6873 86.0318 32.65 85.4103C31.6072 84.7947 30.6548 84.0375 29.82 83.1603C25.37 79.1003 22.48 71.1603 28.27 55.6303C30.5337 58.5053 33.2981 60.9479 36.43 62.8403C38.6332 64.0493 40.9871 64.9606 43.43 65.5503C45.8849 66.1387 48.4066 66.401 50.93 66.3303C54.3325 66.3686 57.7158 65.8171 60.93 64.7003L60.81 65.1003L60.35 66.6303C60.23 67.0403 60.09 67.4303 59.95 67.8303C59.89 67.8303 59.82 67.8303 59.76 67.8303C59.54 67.8303 59.19 67.9003 58.95 67.9203C58.7451 67.933 58.5413 67.9597 58.34 68.0003C55.2882 68.6447 52.1623 68.8667 49.05 68.6603C47.92 68.6603 46.68 68.5903 45.21 68.5903C44.9222 68.5882 44.6368 68.6426 44.37 68.7503C44.1038 68.8615 43.8624 69.0247 43.66 69.2303C43.4533 69.4318 43.29 69.6735 43.18 69.9403C43.0691 70.2066 43.0113 70.4919 43.01 70.7803C43.0095 71.0689 43.0673 71.3547 43.18 71.6203C43.2891 71.8879 43.4506 72.131 43.6549 72.3354C43.8593 72.5397 44.1024 72.7012 44.37 72.8103C44.6362 72.9213 44.9216 72.979 45.21 72.9803C46.63 72.9803 47.83 72.9803 48.93 73.0503C50.03 73.1203 50.79 73.1003 51.7 73.1003C53.82 73.1022 55.9357 72.908 58.02 72.5203C54.48 79.7903 48.93 85.2603 43.14 86.8603ZM90.67 27.2003L92.97 26.6003C98.46 32.6803 100.88 37.9903 103.97 45.7003C100.97 54.0903 87.97 60.7803 79.58 61.9503C78.6048 62.2228 77.5868 62.3076 76.58 62.2003C75.5724 62.0919 74.593 61.8004 73.69 61.3403C71.5509 54.2519 70.0713 46.981 69.27 39.6203C69.27 39.2303 69.27 38.8703 69.2 38.4703C69.1792 38.3094 69.1389 38.1515 69.08 38.0003C68.96 37.0003 68.85 35.8803 68.74 34.7803C72.36 31.9503 85.99 28.4203 90.67 27.2003ZM29.41 122.2C30 123.4 31.19 125.8 32.81 129.92L29.1 128.42C23.27 126.05 12.54 121.7 7.19 118.95C9.14589 118.392 11.0689 117.724 12.95 116.95C20.79 113.95 25.4 112.63 28.95 121.26C29.05 121.45 29.19 121.75 29.41 122.19V122.2ZM129.74 115.95C125.806 113.395 121.714 111.091 117.49 109.05L116.8 108.71C115.461 107.856 114.001 107.205 112.47 106.78C110.94 106.361 109.356 106.169 107.77 106.21C106.89 103.05 105.91 99.4003 104.96 95.8003C103.57 90.5303 102.59 86.8003 101.89 84.5903C104.366 83.3693 106.505 81.5598 108.12 79.3203C113.56 71.9503 114.2 59.9503 109.77 48.5703L109.19 47.0903C105.29 37.0903 102.71 30.4803 95.19 22.5803C94.8731 22.2563 94.465 22.0366 94.02 21.9503C93.5569 21.87 93.0803 21.9401 92.66 22.1503C92.24 22.2903 90.88 22.6403 89.57 22.9803C76.63 26.3403 67.46 29.2503 64.72 32.5603C64.5427 32.7799 64.4114 33.033 64.3341 33.3045C64.2568 33.576 64.235 33.8602 64.27 34.1403V34.4603C64.27 34.7203 64.32 34.9603 64.35 35.2203C52.16 29.9503 43.17 26.5603 39 27.4903C38.7135 27.553 38.4431 27.6742 38.2056 27.8463C37.9682 28.0184 37.7688 28.2376 37.62 28.4903L37.45 28.7503C19.35 56.9203 15.78 76.3303 26.85 86.4403C28.3945 87.8496 30.132 89.0315 32.01 89.9503C31.09 92.3203 29.27 96.5603 27.61 100.42C26.13 103.86 24.61 107.42 23.36 110.42C19.3 109.79 14.98 111.42 11.36 112.83C8.83359 113.973 6.15633 114.748 3.41 115.13C0.790003 115.29 0.180003 116.68 0.0500027 117.49C-0.399997 120.24 1.63 122.01 27.45 132.49C31.12 133.98 34.91 135.49 35.53 135.88C35.9171 136.116 36.3682 136.224 36.82 136.19C37.2703 136.156 37.6994 135.985 38.05 135.7C38.4044 135.417 38.66 135.028 38.78 134.59C38.9198 134.161 38.9198 133.699 38.78 133.27C37.2601 128.827 35.4598 124.485 33.39 120.27C33.23 119.95 33.12 119.73 33.07 119.6C32.536 118.102 31.7847 116.69 30.84 115.41C29.9007 114.133 28.7748 113.003 27.5 112.06C28.74 109.06 30.23 105.57 31.69 102.17C33.85 97.1703 35.35 93.6303 36.19 91.4203C37.3087 91.6509 38.4478 91.7682 39.59 91.7703C41.1737 91.7582 42.7483 91.5294 44.27 91.0903C53.09 88.6503 61.04 79.5503 64.54 67.8903L65 66.3603C66.07 62.8103 67 59.6803 67.73 56.6503C68.31 59.0403 68.96 61.2503 69.65 63.3503V63.4203C74.41 77.9203 81.65 85.6403 91.41 86.4203C92.05 86.4203 92.67 86.4903 93.29 86.4903C94.7614 86.4986 96.2296 86.3511 97.67 86.0503C98.41 88.4803 99.58 92.9103 100.67 96.9503C101.67 100.58 102.61 104.29 103.51 107.49C99.92 109.49 97.51 113.49 95.51 116.8C94.222 119.255 92.5925 121.514 90.67 123.51C88.67 125.25 89.08 126.72 89.48 127.44C89.97 128.34 90.65 128.92 92.64 128.92C96.05 128.92 103.36 127.19 120.31 122.32C124.1 121.23 128.02 120.1 128.73 120.01C129.181 119.952 129.604 119.757 129.94 119.45C130.277 119.147 130.508 118.744 130.6 118.3C130.712 117.864 130.673 117.402 130.49 116.99C130.351 116.576 130.09 116.213 129.74 115.95Z" fill="#3C5447"/>
<path d="M38.2699 14.721C41.3084 16.7016 44.233 18.8516 47.0299 21.161C47.2462 21.3511 47.4976 21.4972 47.7699 21.591C48.043 21.6837 48.3327 21.7178 48.6199 21.691C48.9084 21.6734 49.1905 21.5986 49.4499 21.471C49.7077 21.3383 49.9383 21.1586 50.1299 20.941C50.3192 20.7257 50.4621 20.4738 50.5499 20.201C50.6409 19.9273 50.6783 19.6387 50.6599 19.351C50.6389 19.0618 50.5607 18.7797 50.4299 18.521C50.3035 18.2649 50.1266 18.037 49.9099 17.851C46.9868 15.4143 43.9214 13.1537 40.7299 11.081C39.7299 10.421 39.0099 9.93096 38.6699 9.66096C38.4514 9.47543 38.1957 9.33902 37.9199 9.26096C37.641 9.1795 37.349 9.15234 37.0599 9.18096C36.7721 9.21256 36.4933 9.30093 36.2399 9.44096C35.9886 9.5789 35.7675 9.76594 35.5899 9.99096C35.4031 10.2123 35.2666 10.4717 35.1899 10.751C35.1085 11.0264 35.0813 11.3151 35.1099 11.601C35.1415 11.8888 35.2299 12.1675 35.3699 12.421C35.5103 12.6734 35.6969 12.8973 35.9199 13.081C36.2699 13.391 37.1199 13.951 38.2699 14.721Z" fill="#3C5447"/>
<path d="M58.4101 15.7706C58.4303 16.0447 58.5015 16.3127 58.6201 16.5606C58.7371 16.8086 58.9039 17.0299 59.1101 17.2106C59.3087 17.4015 59.5432 17.5511 59.8001 17.6506C60.0547 17.7511 60.3263 17.802 60.6001 17.8006H60.7601C61.0486 17.7831 61.3307 17.7083 61.5901 17.5806C61.8464 17.4503 62.0742 17.2701 62.2601 17.0506C62.4489 16.8297 62.5948 16.5753 62.6901 16.3006C62.7785 16.0265 62.8124 15.7378 62.7901 15.4506C62.0901 5.98064 61.7101 4.20064 60.7901 1.51064C60.7023 1.23778 60.5593 0.985895 60.3701 0.770638C60.1851 0.550836 59.9579 0.370337 59.702 0.239802C59.4461 0.109267 59.1666 0.0313449 58.8801 0.0106381C58.5921 -0.0126948 58.3025 0.0247829 58.0301 0.120638C57.7511 0.208258 57.4927 0.351091 57.2701 0.540638C57.0531 0.730344 56.8763 0.96155 56.7501 1.22064C56.6192 1.4758 56.541 1.75466 56.5201 2.04064C56.4949 2.32859 56.5324 2.61858 56.6301 2.89064C57.3701 5.05064 57.7201 6.40064 58.4101 15.7706Z" fill="#3C5447"/>
<path d="M74.4999 18.7302C74.768 18.8316 75.0534 18.8792 75.3399 18.8702C75.6296 18.862 75.9149 18.7975 76.1799 18.6802C76.4422 18.5626 76.6797 18.3963 76.8799 18.1902C77.0797 17.9794 77.236 17.7314 77.3399 17.4602C77.8299 16.1802 78.5099 14.7402 79.4599 12.7402C80.0899 11.4102 80.8199 9.84018 81.6999 7.93018C81.8124 7.66711 81.8768 7.38599 81.8899 7.10018C81.8989 6.81044 81.8514 6.52172 81.7499 6.25018C81.6422 5.97918 81.4786 5.73387 81.2699 5.53018C81.0756 5.31471 80.8368 5.1441 80.5699 5.03018C80.3094 4.9087 80.0272 4.84069 79.7399 4.83018C79.4534 4.82117 79.168 4.86874 78.8999 4.97018C78.6269 5.06563 78.3779 5.21916 78.1699 5.42018C77.961 5.61639 77.7913 5.85055 77.6699 6.11018C76.8099 8.00018 76.0799 9.54018 75.4599 10.8602C74.4599 12.9502 73.7599 14.4602 73.1999 15.8602C73.0985 16.1283 73.0509 16.4137 73.0599 16.7002C73.0681 16.9899 73.1326 17.2752 73.2499 17.5402C73.3675 17.8024 73.5337 18.04 73.7399 18.2402C73.9568 18.4541 74.2155 18.621 74.4999 18.7302Z" fill="#3C5447"/>
<path d="M39.2699 67.0704C38.2169 66.8584 37.2042 66.4804 36.2699 65.9503C36.0429 65.773 35.7803 65.6468 35.4999 65.5803C35.2159 65.5253 34.924 65.5253 34.6399 65.5803C34.0644 65.6702 33.5472 65.9827 33.1999 66.4503C33.0306 66.6809 32.9083 66.9425 32.8399 67.2203C32.7683 67.5012 32.7513 67.7931 32.7899 68.0803C32.8369 68.3625 32.9352 68.6336 33.0799 68.8803C33.2323 69.1275 33.4289 69.3445 33.6599 69.5203C35.0276 70.3942 36.5367 71.0235 38.1199 71.3803C38.5649 71.5045 39.0378 71.4835 39.4699 71.3204C39.7161 71.225 39.943 71.0861 40.1399 70.9103C40.4368 70.6485 40.6583 70.3119 40.7814 69.9357C40.9045 69.5594 40.9247 69.1571 40.8399 68.7703C40.7767 68.4737 40.6505 68.1941 40.4699 67.9503C40.3274 67.7281 40.1442 67.5347 39.9299 67.3803C39.7295 67.2397 39.5062 67.1348 39.2699 67.0704Z" fill="#3C5447"/>
<path d="M93.7999 66.6309C93.3719 66.7073 92.9697 66.8895 92.6299 67.1609C92.4119 67.3196 92.1811 67.4601 91.9399 67.5809C91.6769 67.6398 91.4264 67.7448 91.1999 67.8909C90.7385 68.1838 90.406 68.6415 90.2699 69.1709C90.2212 69.4286 90.2212 69.6931 90.2699 69.9509C90.3006 70.2191 90.3785 70.4798 90.4999 70.7209C90.6193 70.9616 90.7859 71.1759 90.9899 71.3509C91.1885 71.5319 91.4191 71.6744 91.6699 71.7709C91.9179 71.8705 92.1827 71.9214 92.4499 71.9209C92.5828 71.9361 92.717 71.9361 92.8499 71.9209C93.716 71.711 94.5273 71.319 95.2299 70.7709C95.4591 70.6511 95.6628 70.4881 95.8299 70.2909C96.0054 70.1013 96.1444 69.8809 96.2399 69.6409C96.33 69.4006 96.3807 69.1473 96.3899 68.8909C96.3983 68.633 96.3611 68.3757 96.2799 68.1309C96.1949 67.8884 96.0698 67.662 95.9099 67.4609C95.734 67.2486 95.5161 67.0749 95.2699 66.9509C95.0506 66.8185 94.8106 66.7238 94.5599 66.6709C94.3052 66.626 94.0446 66.626 93.7899 66.6709L93.7999 66.6309Z" fill="#3C5447"/>
</g>
</g>
</g>
</g>
<defs>
<clipPath id="clip0_213_265">
<rect width="130.75" height="136.18" fill="white"/>
</clipPath>
</defs>
</svg>
