<svg width="50" height="50" viewBox="0 0 80 80" fill="none" xmlns="http://www.w3.org/2000/svg">
<g clip-path="url(#clip0_212_256)">
<g opacity="0.77">
<mask id="mask0_212_256" style="mask-type:luminance" maskUnits="userSpaceOnUse" x="-1" y="-1" width="81" height="81">
<path d="M79.8094 -0.0263672H-0.0131836V79.8028H79.8094V-0.0263672Z" fill="white"/>
</mask>
<g mask="url(#mask0_212_256)">
<path d="M66.2428 76.2355H51.7893V62.2276C51.7893 61.8465 51.7893 61.4589 51.7368 61.0778C51.6842 60.6967 51.6382 60.3091 51.566 59.9346C51.4937 59.5601 51.3951 59.179 51.2835 58.8111C51.1718 58.4431 51.0404 58.0818 50.8958 57.727C50.7513 57.3722 50.5805 57.0239 50.4031 56.6823C50.2257 56.3406 50.0221 56.0253 49.8053 55.6902C49.603 55.3698 49.3837 55.0606 49.1483 54.7638C48.9073 54.4637 48.6484 54.1785 48.373 53.9096C48.1027 53.6358 47.8176 53.377 47.519 53.1343C47.2226 52.8984 46.9133 52.679 46.5926 52.4773C46.2707 52.2605 45.9357 52.0634 45.6006 51.8794C45.2655 51.6954 44.9436 51.5377 44.556 51.3866C44.1684 51.2355 43.8333 51.1107 43.4654 50.999C43.0975 50.8873 42.7231 50.7953 42.3486 50.7165C41.5905 50.5719 40.8208 50.4971 40.0492 50.4931C39.6652 50.4931 39.2814 50.5128 38.8994 50.5522C38.5158 50.5867 38.1342 50.6415 37.7563 50.7165C37.3753 50.7953 37.0008 50.8873 36.6329 50.999C36.265 51.1107 35.9036 51.2421 35.5489 51.3866C35.1941 51.5312 34.8393 51.702 34.5043 51.8794C34.1692 52.0568 33.8473 52.2605 33.5122 52.4773C33.1905 52.6774 32.8812 52.8969 32.5859 53.1343C31.9874 53.6212 31.4393 54.1671 30.95 54.7638C30.7091 55.0572 30.4902 55.366 30.2931 55.6902C30.0828 56.0121 29.8857 56.3472 29.7018 56.6823C28.9811 58.0476 28.5347 59.5409 28.3878 61.0778C28.3177 61.4582 28.2673 61.842 28.2367 62.2276V76.2355H13.7832V42.1685L39.9966 20.5456L66.2428 42.1685V76.2355ZM79.3101 48.0686L41.8624 17.2342V8.74536H45.6926C45.9328 8.73356 46.1688 8.67789 46.389 8.5811C46.606 8.48063 46.8021 8.34021 46.9671 8.16717C47.1334 7.99452 47.265 7.79155 47.3547 7.56928C47.5296 7.11918 47.5296 6.61989 47.3547 6.1698C47.265 5.94753 47.1334 5.74455 46.9671 5.5719C46.8038 5.39686 46.6073 5.25614 46.389 5.15798C46.1688 5.06119 45.9328 5.00552 45.6926 4.99372H41.869V1.86625C41.869 1.62092 41.8222 1.37784 41.731 1.15009C41.6318 0.926223 41.4939 0.721601 41.3237 0.545624C41.0599 0.285933 40.726 0.109019 40.3629 0.0366446C39.9999 -0.0357299 39.6237 -0.000408088 39.2805 0.138265C39.0536 0.2319 38.848 0.370465 38.6761 0.545624C38.5016 0.718152 38.3632 0.923616 38.2688 1.15009C38.1725 1.37653 38.1233 1.6202 38.1242 1.86625V4.99372H34.294C34.067 5.00866 33.8444 5.06429 33.6371 5.15798C33.4168 5.256 33.218 5.39668 33.0524 5.5719C32.888 5.74481 32.7587 5.94783 32.6713 6.1698C32.4877 6.61822 32.4877 7.12086 32.6713 7.56928C32.7587 7.79125 32.888 7.99426 33.0524 8.16717C33.2197 8.34041 33.4181 8.4808 33.6371 8.5811C33.8444 8.67479 34.067 8.73042 34.294 8.74536H38.1242V17.2342L0.689706 48.0686C0.314748 48.393 0.0794113 48.8496 0.0327302 49.3433C-0.0154943 49.8407 0.135738 50.337 0.453195 50.723C0.610044 50.9131 0.801827 51.0715 1.01819 51.1895C1.23775 51.3018 1.47598 51.3731 1.72116 51.3998C1.96663 51.4254 2.21474 51.4008 2.4504 51.3275C2.69088 51.2575 2.91448 51.139 3.10738 50.9793L10.0385 45.2697V78.1212C10.0368 78.3673 10.086 78.6111 10.183 78.8373C10.3635 79.2896 10.7119 79.6546 11.1553 79.8557C11.3831 79.9469 11.6261 79.9938 11.8714 79.9937H30.1025C30.3479 79.9943 30.591 79.9474 30.8186 79.8557C31.0437 79.7587 31.2487 79.6206 31.4231 79.4484C31.5991 79.2746 31.7377 79.0667 31.8304 78.8373C31.9274 78.6111 31.9766 78.3673 31.9749 78.1212V62.2276C31.976 61.7028 32.0266 61.1792 32.126 60.6639C32.2293 60.1484 32.3833 59.6444 32.5859 59.1593C32.7873 58.6802 33.036 58.2224 33.3283 57.7927C33.9146 56.9171 34.6668 56.1649 35.5423 55.5785C35.9782 55.2849 36.4426 55.0362 36.9285 54.836C37.4136 54.6334 37.9176 54.4794 38.433 54.3761C39.4679 54.1746 40.5319 54.1746 41.5668 54.3761C42.5995 54.5846 43.5815 54.9931 44.4575 55.5785C44.8945 55.8706 45.3016 56.2051 45.6729 56.5772C46.0461 56.9474 46.3807 57.3547 46.6715 57.7927C46.9625 58.2301 47.2111 58.6943 47.4139 59.179C47.6113 59.6654 47.7631 60.1691 47.8672 60.6836C47.9719 61.1982 48.0248 61.7221 48.0249 62.2473V78.1277C48.0243 78.3731 48.0711 78.6163 48.1628 78.8439C48.2589 79.0695 48.3971 79.2747 48.5701 79.4484C48.7439 79.6244 48.9518 79.763 49.1811 79.8557C49.4073 79.9527 49.6511 80.0019 49.8972 80.0003H68.1152C68.3613 80.0019 68.6051 79.9527 68.8313 79.8557C69.1744 79.7152 69.4681 79.476 69.6751 79.1684C69.8821 78.8607 69.9932 78.4986 69.9941 78.1277V45.2762L76.9187 50.9858C77.1136 51.1425 77.3365 51.2607 77.5756 51.3341C77.8113 51.4074 78.0594 51.4319 78.3049 51.4063C78.5513 51.3814 78.7902 51.3077 79.0079 51.1895C79.2302 51.0777 79.4253 50.9184 79.5794 50.723C79.8131 50.435 79.957 50.0846 79.9932 49.7155C80.0294 49.3464 79.9563 48.9747 79.7831 48.6468C79.6669 48.4273 79.5084 48.233 79.3166 48.0752L79.3101 48.0686Z" fill="#3C5447"/>
</g>
</g>
</g>
<defs>
<clipPath id="clip0_212_256">
<rect width="80" height="80" fill="white"/>
</clipPath>
</defs>
</svg>
